<svg id="ee6083cc-59c9-4b53-b090-710cb95ce688" data-name="f1a5deda-b915-4997-94a5-e165187d9982" xmlns="http://www.w3.org/2000/svg" viewBox="0 0 800 800"><defs><style>.a5ac5c6c-bf74-4b02-b9bf-2e5a38f900a3{opacity:0.02;isolation:isolate;}.b352dde6-16e4-4475-9aa9-c7e410a33f8f{fill:none;}</style></defs><path class="a5ac5c6c-bf74-4b02-b9bf-2e5a38f900a3" d="M100,300H300V100H100Zm33.33-166.67H266.67V266.67H133.33Zm33.34,33.34h66.66v66.66H166.67ZM500,300H700V100H500Zm33.33-166.67H666.67V266.67H533.33Zm33.34,33.34h66.66v66.66H566.67ZM100,700H300V500H100Zm33.33-166.67H266.67V666.67H133.33Zm33.34,33.34h66.66v66.66H166.67Zm500,66.66H700V700H633.33V600h33.34Zm0-100H700v33.34H666.67Zm0-33.33v33.33H633.33V500ZM333.33,566.67h33.34V700H333.33ZM200,333.33V400H133.33V366.67H100V333.33Zm133.33-100h33.34v33.34H333.33Zm100-100V200H400V100h66.67v33.33Zm-100,0h33.34v33.34H333.33ZM666.67,400H700v66.67H633.33V433.33h33.34Zm-33.34-66.67v33.34H566.67v66.66H500V400h33.33V333.33ZM400,466.67H366.67V433.33H333.33V400H400Zm200,66.66h33.33v33.34H600Zm66.67-166.66V400H633.33V366.67Zm-300,100V500H333.33V466.67Zm200,166.66H600V700H533.33V633.33Zm-100,0H500v33.34H466.67V700H400V666.67h33.33V633.33Zm0-33.33V566.67h66.66V600Zm0-166.67H500v100H466.67v33.34H433.33V600H400V533.33H366.67V500h100V466.67H433.33V433.33Zm-300,0v33.34H133.33V433.33Zm400,133.34H533.33V533.33h33.34ZM600,500H533.33V466.67H600ZM266.67,333.33H300v33.34H266.67V400H300v66.67H266.67V433.33H233.33v33.34H200V400h33.33V333.33Zm100,0V266.67h100v100H400V333.33h33.33V300H400v33.33Zm0-133.33H400v33.33H366.67ZM333.33,333.33h33.34v33.34H333.33Zm100-100V200h33.34v33.33Z"/><path class="b352dde6-16e4-4475-9aa9-c7e410a33f8f" d="M0,0H800V800H0Z"/></svg>